<svg width="63" height="30" viewBox="0 0 63 30" fill="none" xmlns="http://www.w3.org/2000/svg">
<path d="M4.1958 6.8944C4.1958 6.70875 4.26955 6.5307 4.40082 6.39942C4.5321 6.26815 4.71015 6.1944 4.8958 6.1944H5.509C6.5268 6.1944 7.112 6.8566 7.4508 7.5174C7.6818 7.9696 7.8484 8.5212 7.987 9H22.4C22.6163 9.00006 22.8297 9.05025 23.0234 9.14664C23.217 9.24302 23.3857 9.38297 23.5162 9.55551C23.6467 9.72805 23.7354 9.92847 23.7754 10.1411C23.8154 10.3537 23.8056 10.5726 23.7468 10.7808L21.6524 18.1658C21.4858 18.7517 21.1327 19.2673 20.6466 19.6344C20.1605 20.0015 19.5679 20.2001 18.9588 20.2H11.8482C11.234 20.2002 10.6367 19.9984 10.1485 19.6258C9.66022 19.2532 9.30804 18.7303 9.1462 18.1378L8.2474 14.8408C8.24224 14.826 8.23757 14.8111 8.2334 14.796L6.79 9.9002L6.65 9.4284C6.51 8.944 6.3868 8.5156 6.202 8.1558C5.9794 7.7218 5.775 7.5958 5.5076 7.5958H4.8944C4.70875 7.5958 4.5307 7.52205 4.39942 7.39077C4.26815 7.2595 4.1944 7.08145 4.1944 6.8958L4.1958 6.8944ZM9.583 14.418L10.4972 17.7724C10.5782 18.0685 10.7544 18.3298 10.9985 18.516C11.2426 18.7022 11.5412 18.8029 11.8482 18.8028H18.9602C19.2646 18.8025 19.5606 18.703 19.8034 18.5193C20.0462 18.3356 20.2225 18.0779 20.3056 17.785L22.4 10.4H8.4L9.583 14.418ZM14 23.6986C14 24.2556 13.7787 24.7897 13.3849 25.1835C12.9911 25.5773 12.457 25.7986 11.9 25.7986C11.343 25.7986 10.8089 25.5773 10.4151 25.1835C10.0212 24.7897 9.8 24.2556 9.8 23.6986C9.8 23.1416 10.0212 22.6075 10.4151 22.2137C10.8089 21.8198 11.343 21.5986 11.9 21.5986C12.457 21.5986 12.9911 21.8198 13.3849 22.2137C13.7787 22.6075 14 23.1416 14 23.6986ZM12.6 23.6986C12.6 23.5129 12.5262 23.3349 12.395 23.2036C12.2637 23.0723 12.0856 22.9986 11.9 22.9986C11.7143 22.9986 11.5363 23.0723 11.405 23.2036C11.2737 23.3349 11.2 23.5129 11.2 23.6986C11.2 23.8842 11.2737 24.0623 11.405 24.1936C11.5363 24.3248 11.7143 24.3986 11.9 24.3986C12.0856 24.3986 12.2637 24.3248 12.395 24.1936C12.5262 24.0623 12.6 23.8842 12.6 23.6986ZM21 23.6986C21 24.2556 20.7787 24.7897 20.3849 25.1835C19.9911 25.5773 19.457 25.7986 18.9 25.7986C18.343 25.7986 17.8089 25.5773 17.4151 25.1835C17.0212 24.7897 16.8 24.2556 16.8 23.6986C16.8 23.1416 17.0212 22.6075 17.4151 22.2137C17.8089 21.8198 18.343 21.5986 18.9 21.5986C19.457 21.5986 19.9911 21.8198 20.3849 22.2137C20.7787 22.6075 21 23.1416 21 23.6986ZM19.6 23.6986C19.6 23.5129 19.5262 23.3349 19.395 23.2036C19.2637 23.0723 19.0856 22.9986 18.9 22.9986C18.7143 22.9986 18.5363 23.0723 18.405 23.2036C18.2737 23.3349 18.2 23.5129 18.2 23.6986C18.2 23.8842 18.2737 24.0623 18.405 24.1936C18.5363 24.3248 18.7143 24.3986 18.9 24.3986C19.0856 24.3986 19.2637 24.3248 19.395 24.1936C19.5262 24.0623 19.6 23.8842 19.6 23.6986Z" fill="#111111"/>
<rect x="15" width="13" height="13" rx="6.5" fill="#FCFF72"/>
<path d="M21.5 10.92C19.056 10.92 17.08 8.94399 17.08 6.49999C17.08 4.05599 19.056 2.07999 21.5 2.07999C23.944 2.07999 25.92 4.05599 25.92 6.49999C25.92 8.94399 23.944 10.92 21.5 10.92ZM21.5 2.59999C19.342 2.59999 17.6 4.34199 17.6 6.49999C17.6 8.65799 19.342 10.4 21.5 10.4C23.658 10.4 25.4 8.65799 25.4 6.49999C25.4 4.34199 23.658 2.59999 21.5 2.59999Z" fill="#111111"/>
<path d="M19.16 6.23999H23.84V6.75999H19.16V6.23999Z" fill="#111111"/>
<path d="M21.24 4.16H21.76V8.84H21.24V4.16Z" fill="#111111"/>
<path d="M39.9432 14.1477H38.1705C38.1023 13.7689 37.9754 13.4356 37.7898 13.1477C37.6042 12.8598 37.3769 12.6155 37.108 12.4148C36.839 12.214 36.5379 12.0625 36.2045 11.9602C35.875 11.858 35.5246 11.8068 35.1534 11.8068C34.483 11.8068 33.8826 11.9754 33.3523 12.3125C32.8258 12.6496 32.4091 13.1439 32.1023 13.7955C31.7992 14.447 31.6477 15.2424 31.6477 16.1818C31.6477 17.1288 31.7992 17.928 32.1023 18.5795C32.4091 19.2311 32.8277 19.7235 33.358 20.0568C33.8883 20.3902 34.4848 20.5568 35.1477 20.5568C35.5152 20.5568 35.8636 20.5076 36.1932 20.4091C36.5265 20.3068 36.8277 20.1572 37.0966 19.9602C37.3655 19.7633 37.5928 19.5227 37.7784 19.2386C37.9678 18.9508 38.0985 18.6212 38.1705 18.25L39.9432 18.2557C39.8485 18.8277 39.6648 19.3542 39.392 19.8352C39.1231 20.3125 38.7765 20.7254 38.3523 21.0739C37.9318 21.4186 37.4508 21.6856 36.9091 21.875C36.3674 22.0644 35.7765 22.1591 35.1364 22.1591C34.1288 22.1591 33.2311 21.9205 32.4432 21.4432C31.6553 20.9621 31.0341 20.2746 30.5795 19.3807C30.1288 18.4867 29.9034 17.4205 29.9034 16.1818C29.9034 14.9394 30.1307 13.8731 30.5852 12.983C31.0398 12.089 31.661 11.4034 32.4489 10.9261C33.2367 10.4451 34.1326 10.2045 35.1364 10.2045C35.7538 10.2045 36.3295 10.2936 36.8636 10.4716C37.4015 10.6458 37.8845 10.9034 38.3125 11.2443C38.7405 11.5814 39.0947 11.9943 39.375 12.483C39.6553 12.9678 39.8447 13.5227 39.9432 14.1477ZM44.4474 22.1932C43.8944 22.1932 43.3944 22.0909 42.9474 21.8864C42.5005 21.678 42.1463 21.3769 41.8849 20.983C41.6274 20.589 41.4986 20.1061 41.4986 19.5341C41.4986 19.0417 41.5933 18.6364 41.7827 18.3182C41.9721 18 42.2277 17.7481 42.5497 17.5625C42.8717 17.3769 43.2315 17.2367 43.6293 17.142C44.027 17.0473 44.4323 16.9754 44.8452 16.9261C45.3679 16.8655 45.7921 16.8163 46.1179 16.7784C46.4437 16.7367 46.6804 16.6705 46.8281 16.5795C46.9759 16.4886 47.0497 16.3409 47.0497 16.1364V16.0966C47.0497 15.6004 46.9096 15.2159 46.6293 14.9432C46.3527 14.6705 45.9399 14.5341 45.3906 14.5341C44.8187 14.5341 44.3679 14.661 44.0384 14.9148C43.7126 15.1648 43.4872 15.4432 43.3622 15.75L41.7656 15.3864C41.955 14.8561 42.2315 14.428 42.5952 14.1023C42.9626 13.7727 43.3849 13.5341 43.8622 13.3864C44.3395 13.2348 44.8414 13.1591 45.3679 13.1591C45.7164 13.1591 46.0857 13.2008 46.4759 13.2841C46.8698 13.3636 47.2372 13.5114 47.5781 13.7273C47.9228 13.9432 48.205 14.2519 48.4247 14.6534C48.6444 15.0511 48.7543 15.5682 48.7543 16.2045V22H47.0952V20.8068H47.027C46.9171 21.0265 46.7524 21.2424 46.5327 21.4545C46.313 21.6667 46.0308 21.8428 45.6861 21.983C45.3414 22.1231 44.9285 22.1932 44.4474 22.1932ZM44.8168 20.8295C45.2865 20.8295 45.688 20.7367 46.0213 20.5511C46.3584 20.3655 46.6141 20.1231 46.7884 19.8239C46.9664 19.5208 47.0554 19.197 47.0554 18.8523V17.7273C46.9948 17.7879 46.8774 17.8447 46.7031 17.8977C46.5327 17.947 46.3376 17.9905 46.1179 18.0284C45.8982 18.0625 45.6842 18.0947 45.4759 18.125C45.2675 18.1515 45.0933 18.1742 44.9531 18.1932C44.6236 18.2348 44.3224 18.3049 44.0497 18.4034C43.7808 18.5019 43.5649 18.6439 43.402 18.8295C43.2429 19.0114 43.1634 19.2538 43.1634 19.5568C43.1634 19.9773 43.3187 20.2955 43.6293 20.5114C43.9399 20.7235 44.3357 20.8295 44.8168 20.8295ZM51.017 22V13.2727H52.6591V14.6591H52.75C52.9091 14.1894 53.1894 13.8201 53.5909 13.5511C53.9962 13.2784 54.4545 13.142 54.9659 13.142C55.072 13.142 55.197 13.1458 55.3409 13.1534C55.4886 13.161 55.6042 13.1705 55.6875 13.1818V14.8068C55.6193 14.7879 55.4981 14.767 55.3239 14.7443C55.1496 14.7178 54.9754 14.7045 54.8011 14.7045C54.3996 14.7045 54.0417 14.7898 53.7273 14.9602C53.4167 15.1269 53.1705 15.3598 52.9886 15.6591C52.8068 15.9545 52.7159 16.2917 52.7159 16.6705V22H51.017ZM61.7472 13.2727V14.6364H56.9801V13.2727H61.7472ZM58.2585 11.1818H59.9574V19.4375C59.9574 19.767 60.0066 20.0152 60.1051 20.1818C60.2036 20.3447 60.3305 20.4564 60.4858 20.517C60.6449 20.5739 60.8172 20.6023 61.0028 20.6023C61.1392 20.6023 61.2585 20.5928 61.3608 20.5739C61.4631 20.5549 61.5426 20.5398 61.5994 20.5284L61.9062 21.9318C61.8078 21.9697 61.6676 22.0076 61.4858 22.0455C61.304 22.0871 61.0767 22.1098 60.804 22.1136C60.357 22.1212 59.9403 22.0417 59.554 21.875C59.1676 21.7083 58.8551 21.4508 58.6165 21.1023C58.3778 20.7538 58.2585 20.3163 58.2585 19.7898V11.1818Z" fill="#2E2E2E"/>
</svg>
