<svg width="123" height="25" viewBox="0 0 123 25" fill="none" xmlns="http://www.w3.org/2000/svg">
<path d="M32.2784 9.36364H34.4091L38.1136 18.4091H38.25L41.9545 9.36364H44.0852V21H42.4148V12.5795H42.3068L38.875 20.983H37.4886L34.0568 12.5739H33.9489V21H32.2784V9.36364ZM47.5753 24.2727C47.3215 24.2727 47.0904 24.2519 46.8821 24.2102C46.6738 24.1723 46.5185 24.1307 46.4162 24.0852L46.8253 22.6932C47.1359 22.7765 47.4124 22.8125 47.6548 22.8011C47.8973 22.7898 48.1113 22.6989 48.2969 22.5284C48.4863 22.358 48.6529 22.0795 48.7969 21.6932L49.0071 21.1136L45.8139 12.2727H47.6321L49.8423 19.0455H49.9332L52.1435 12.2727H53.9673L50.3707 22.1648C50.2041 22.6193 49.992 23.0038 49.7344 23.3182C49.4768 23.6364 49.17 23.875 48.8139 24.0341C48.4579 24.1932 48.045 24.2727 47.5753 24.2727ZM60.9176 21H59.054L63.2415 9.36364H65.2699L69.4574 21H67.5938L64.304 11.4773H64.2131L60.9176 21ZM61.2301 16.4432H67.2756V17.9205H61.2301V16.4432ZM74.5369 21.1761C73.6922 21.1761 72.965 20.9848 72.3551 20.6023C71.7491 20.2159 71.2831 19.6837 70.9574 19.0057C70.6316 18.3277 70.4688 17.5511 70.4688 16.6761C70.4688 15.7898 70.6354 15.0076 70.9688 14.3295C71.3021 13.6477 71.7718 13.1155 72.3778 12.733C72.9839 12.3504 73.6979 12.1591 74.5199 12.1591C75.1828 12.1591 75.7737 12.2822 76.2926 12.5284C76.8116 12.7708 77.2301 13.1117 77.5483 13.5511C77.8703 13.9905 78.0616 14.5038 78.1222 15.0909H76.4688C76.3778 14.6818 76.1695 14.3295 75.8438 14.0341C75.5218 13.7386 75.09 13.5909 74.5483 13.5909C74.0748 13.5909 73.66 13.7159 73.304 13.9659C72.9517 14.2121 72.6771 14.5644 72.4801 15.0227C72.2831 15.4773 72.1847 16.0152 72.1847 16.6364C72.1847 17.2727 72.2813 17.822 72.4744 18.2841C72.6676 18.7462 72.9403 19.1042 73.2926 19.358C73.6487 19.6117 74.0672 19.7386 74.5483 19.7386C74.8703 19.7386 75.1619 19.6799 75.4233 19.5625C75.6884 19.4413 75.91 19.2689 76.0881 19.0455C76.2699 18.822 76.3968 18.553 76.4688 18.2386H78.1222C78.0616 18.803 77.8778 19.3068 77.571 19.75C77.2642 20.1932 76.8532 20.5417 76.3381 20.7955C75.8267 21.0492 75.2263 21.1761 74.5369 21.1761ZM83.6151 21.1761C82.7704 21.1761 82.0431 20.9848 81.4332 20.6023C80.8272 20.2159 80.3613 19.6837 80.0355 19.0057C79.7098 18.3277 79.5469 17.5511 79.5469 16.6761C79.5469 15.7898 79.7135 15.0076 80.0469 14.3295C80.3802 13.6477 80.8499 13.1155 81.456 12.733C82.062 12.3504 82.776 12.1591 83.598 12.1591C84.2609 12.1591 84.8518 12.2822 85.3707 12.5284C85.8897 12.7708 86.3082 13.1117 86.6264 13.5511C86.9484 13.9905 87.1397 14.5038 87.2003 15.0909H85.5469C85.456 14.6818 85.2476 14.3295 84.9219 14.0341C84.5999 13.7386 84.1681 13.5909 83.6264 13.5909C83.1529 13.5909 82.7382 13.7159 82.3821 13.9659C82.0298 14.2121 81.7552 14.5644 81.5582 15.0227C81.3613 15.4773 81.2628 16.0152 81.2628 16.6364C81.2628 17.2727 81.3594 17.822 81.5526 18.2841C81.7457 18.7462 82.0185 19.1042 82.3707 19.358C82.7268 19.6117 83.1454 19.7386 83.6264 19.7386C83.9484 19.7386 84.2401 19.6799 84.5014 19.5625C84.7666 19.4413 84.9882 19.2689 85.1662 19.0455C85.348 18.822 85.4749 18.553 85.5469 18.2386H87.2003C87.1397 18.803 86.956 19.3068 86.6491 19.75C86.3423 20.1932 85.9313 20.5417 85.4162 20.7955C84.9048 21.0492 84.3045 21.1761 83.6151 21.1761ZM92.6932 21.1761C91.875 21.1761 91.161 20.9886 90.5511 20.6136C89.9413 20.2386 89.4678 19.714 89.1307 19.0398C88.7936 18.3655 88.625 17.5777 88.625 16.6761C88.625 15.7708 88.7936 14.9792 89.1307 14.3011C89.4678 13.6231 89.9413 13.0966 90.5511 12.7216C91.161 12.3466 91.875 12.1591 92.6932 12.1591C93.5114 12.1591 94.2254 12.3466 94.8352 12.7216C95.4451 13.0966 95.9186 13.6231 96.2557 14.3011C96.5928 14.9792 96.7614 15.7708 96.7614 16.6761C96.7614 17.5777 96.5928 18.3655 96.2557 19.0398C95.9186 19.714 95.4451 20.2386 94.8352 20.6136C94.2254 20.9886 93.5114 21.1761 92.6932 21.1761ZM92.6989 19.75C93.2292 19.75 93.6686 19.6098 94.017 19.3295C94.3655 19.0492 94.6231 18.6761 94.7898 18.2102C94.9602 17.7443 95.0455 17.2311 95.0455 16.6705C95.0455 16.1136 94.9602 15.6023 94.7898 15.1364C94.6231 14.6667 94.3655 14.2898 94.017 14.0057C93.6686 13.7216 93.2292 13.5795 92.6989 13.5795C92.1648 13.5795 91.7216 13.7216 91.3693 14.0057C91.0208 14.2898 90.7614 14.6667 90.5909 15.1364C90.4242 15.6023 90.3409 16.1136 90.3409 16.6705C90.3409 17.2311 90.4242 17.7443 90.5909 18.2102C90.7614 18.6761 91.0208 19.0492 91.3693 19.3295C91.7216 19.6098 92.1648 19.75 92.6989 19.75ZM104.186 17.3807V12.2727H105.891V21H104.22V19.4886H104.129C103.929 19.9545 103.607 20.3428 103.163 20.6534C102.724 20.9602 102.177 21.1136 101.521 21.1136C100.961 21.1136 100.464 20.9905 100.033 20.7443C99.6046 20.4943 99.2675 20.125 99.0213 19.6364C98.7789 19.1477 98.6577 18.5436 98.6577 17.8239V12.2727H100.357V17.6193C100.357 18.214 100.521 18.6875 100.851 19.0398C101.18 19.392 101.608 19.5682 102.135 19.5682C102.453 19.5682 102.769 19.4886 103.084 19.3295C103.402 19.1705 103.665 18.9299 103.874 18.608C104.086 18.286 104.19 17.8769 104.186 17.3807ZM109.872 15.8182V21H108.173V12.2727H109.804V13.6932H109.912C110.113 13.2311 110.427 12.8598 110.855 12.5795C111.287 12.2992 111.83 12.1591 112.486 12.1591C113.08 12.1591 113.601 12.2841 114.048 12.5341C114.495 12.7803 114.842 13.1477 115.088 13.6364C115.334 14.125 115.457 14.7292 115.457 15.4489V21H113.759V15.6534C113.759 15.0208 113.594 14.5265 113.264 14.1705C112.935 13.8106 112.482 13.6307 111.906 13.6307C111.512 13.6307 111.162 13.7159 110.855 13.8864C110.552 14.0568 110.312 14.3068 110.134 14.6364C109.959 14.9621 109.872 15.3561 109.872 15.8182ZM121.81 12.2727V13.6364H117.043V12.2727H121.81ZM118.321 10.1818H120.02V18.4375C120.02 18.767 120.069 19.0152 120.168 19.1818C120.266 19.3447 120.393 19.4564 120.548 19.517C120.707 19.5739 120.88 19.6023 121.065 19.6023C121.202 19.6023 121.321 19.5928 121.423 19.5739C121.526 19.5549 121.605 19.5398 121.662 19.5284L121.969 20.9318C121.87 20.9697 121.73 21.0076 121.548 21.0455C121.366 21.0871 121.139 21.1098 120.866 21.1136C120.42 21.1212 120.003 21.0417 119.616 20.875C119.23 20.7083 118.918 20.4508 118.679 20.1023C118.44 19.7538 118.321 19.3163 118.321 18.7898V10.1818Z" fill="#2E2E2E"/>
<path d="M12 2.5C13.1761 2.49964 14.3213 2.87629 15.2676 3.57467C16.2139 4.27305 16.9114 5.25638 17.2578 6.38032C17.6041 7.50427 17.5811 8.70964 17.192 9.81952C16.8029 10.9294 16.0683 11.8853 15.096 12.547C16.7837 13.166 18.2474 14.2759 19.2989 15.7339C20.3504 17.1919 20.9414 18.9312 20.996 20.728C21.0011 20.8277 20.9862 20.9275 20.9523 21.0214C20.9183 21.1153 20.8659 21.2015 20.7982 21.2749C20.7305 21.3483 20.6488 21.4074 20.5579 21.4488C20.467 21.4902 20.3688 21.513 20.269 21.516C20.1692 21.5189 20.0698 21.5019 19.9766 21.4659C19.8835 21.4299 19.7984 21.3756 19.7265 21.3063C19.6546 21.237 19.5973 21.1541 19.5579 21.0623C19.5185 20.9706 19.4978 20.8719 19.497 20.772C19.4375 18.8235 18.6215 16.9747 17.2222 15.6174C15.8228 14.2602 13.95 13.5011 12.0005 13.5011C10.051 13.5011 8.17819 14.2602 6.77883 15.6174C5.37946 16.9747 4.56355 18.8235 4.504 20.772C4.49803 20.9709 4.41329 21.1593 4.26842 21.2957C4.12355 21.4322 3.93041 21.5055 3.7315 21.4995C3.53259 21.4935 3.34419 21.4088 3.20776 21.2639C3.07133 21.119 2.99803 20.9259 3.004 20.727C3.05875 18.9304 3.64989 17.1913 4.70136 15.7335C5.75283 14.2757 7.2165 13.1659 8.904 12.547C7.93169 11.8853 7.19708 10.9294 6.808 9.81952C6.41892 8.70964 6.39586 7.50427 6.74221 6.38032C7.08856 5.25638 7.78607 4.27305 8.73236 3.57467C9.67866 2.87629 10.8239 2.49964 12 2.5ZM8 8C8 9.06087 8.42143 10.0783 9.17157 10.8284C9.92172 11.5786 10.9391 12 12 12C13.0609 12 14.0783 11.5786 14.8284 10.8284C15.5786 10.0783 16 9.06087 16 8C16 6.93913 15.5786 5.92172 14.8284 5.17157C14.0783 4.42143 13.0609 4 12 4C10.9391 4 9.92172 4.42143 9.17157 5.17157C8.42143 5.92172 8 6.93913 8 8Z" fill="#111111"/>
</svg>
