<svg width="101" height="19" viewBox="0 0 101 19" fill="none" xmlns="http://www.w3.org/2000/svg">
<path d="M16.4461 11.8973L12.94 10.3261C12.7812 10.258 12.6079 10.2306 12.4358 10.2464C12.2637 10.2623 12.0982 10.3207 11.9544 10.4166C11.9398 10.426 11.9259 10.4364 11.9129 10.4478L10.0804 12.0064C10.0614 12.0167 10.0402 12.0225 10.0186 12.0233C9.99694 12.0241 9.97541 12.0198 9.95571 12.0108C8.77786 11.4423 7.5577 10.2296 6.98696 9.06806C6.97746 9.04865 6.97252 9.02733 6.97252 9.00571C6.97252 8.9841 6.97746 8.96278 6.98696 8.94337L8.55075 7.0879C8.56197 7.07417 8.57238 7.0598 8.58192 7.04486C8.67647 6.9005 8.73358 6.73488 8.74809 6.56293C8.7626 6.39098 8.73406 6.21813 8.66505 6.05997L7.10497 2.55982C7.01637 2.3532 6.86315 2.18089 6.66831 2.06874C6.47347 1.9566 6.24751 1.91068 6.02434 1.93786C5.05447 2.06537 4.16421 2.54166 3.51992 3.27773C2.87564 4.01381 2.52141 4.9593 2.52345 5.93751C2.52345 11.7488 7.25118 16.4766 13.0625 16.4766C14.0407 16.4784 14.9861 16.1242 15.7221 15.4799C16.4582 14.8357 16.9345 13.9455 17.0622 12.9757C17.0893 12.7536 17.044 12.5286 16.933 12.3343C16.822 12.14 16.6512 11.9867 16.4461 11.8973ZM13.0625 15.5859C7.74251 15.5859 3.41407 11.2575 3.41407 5.93751C3.41159 5.17598 3.68646 4.43958 4.18732 3.86593C4.68817 3.29227 5.38076 2.92058 6.13567 2.82032H6.15274C6.18265 2.82088 6.21169 2.83046 6.23606 2.84781C6.26043 2.86516 6.27899 2.88947 6.28931 2.91755L7.85532 6.414C7.86425 6.43344 7.86888 6.45458 7.86888 6.47597C7.86888 6.49736 7.86425 6.5185 7.85532 6.53794L6.28856 8.39786C6.27687 8.41114 6.26621 8.42528 6.25665 8.44017C6.15861 8.58984 6.10088 8.76228 6.08905 8.94081C6.07721 9.11934 6.11168 9.29789 6.18911 9.45919C6.84743 10.807 8.20563 12.1548 9.56829 12.8131C9.73053 12.8901 9.90996 12.9238 10.0891 12.9108C10.2682 12.8978 10.4409 12.8386 10.5903 12.7389C10.6044 12.7293 10.6185 12.7189 10.6318 12.7077L12.4636 11.1492C12.4817 11.1394 12.5016 11.1337 12.5221 11.1325C12.5426 11.1312 12.5632 11.1343 12.5823 11.1417L16.0891 12.7129C16.1178 12.7251 16.1419 12.746 16.158 12.7727C16.1741 12.7993 16.1814 12.8303 16.179 12.8614C16.0792 13.6166 15.7079 14.3097 15.1344 14.8112C14.5608 15.3126 13.8243 15.588 13.0625 15.5859Z" fill="#111111"/>
<path d="M22.8516 11.7784V6.97727H23.8068V11.7784H22.8516ZM20.9304 9.85369V8.90199H25.7315V9.85369H20.9304ZM29.619 5.72727V13H28.5181V6.82812H28.4755L26.7354 7.96449V6.91335L28.5501 5.72727H29.619ZM34.3143 8.90199V9.82528H31.0898V8.90199H34.3143ZM37.6726 13.0994C37.1636 13.0994 36.7138 13.0118 36.3232 12.8366C35.9349 12.6615 35.6307 12.42 35.4105 12.1122C35.1903 11.8045 35.0814 11.4541 35.0838 11.0611C35.0814 10.7533 35.1442 10.4704 35.272 10.2124C35.4022 9.95194 35.5786 9.73532 35.8011 9.5625C36.0237 9.38731 36.2723 9.27604 36.5469 9.22869V9.18608C36.1847 9.09848 35.8946 8.90436 35.6768 8.60369C35.459 8.30303 35.3513 7.95739 35.3537 7.56676C35.3513 7.19508 35.4496 6.86364 35.6484 6.57244C35.8497 6.27888 36.1255 6.04806 36.4759 5.87997C36.8262 5.71188 37.2251 5.62784 37.6726 5.62784C38.1153 5.62784 38.5107 5.71307 38.8587 5.88352C39.209 6.05161 39.4848 6.28243 39.6861 6.57599C39.8873 6.86719 39.9891 7.19744 39.9915 7.56676C39.9891 7.95739 39.8778 8.30303 39.6577 8.60369C39.4375 8.90436 39.151 9.09848 38.7983 9.18608V9.22869C39.0705 9.27604 39.3156 9.38731 39.5334 9.5625C39.7536 9.73532 39.9287 9.95194 40.0589 10.2124C40.1915 10.4704 40.259 10.7533 40.2614 11.0611C40.259 11.4541 40.1477 11.8045 39.9276 12.1122C39.7074 12.42 39.402 12.6615 39.0114 12.8366C38.6231 13.0118 38.1768 13.0994 37.6726 13.0994ZM37.6726 12.201C37.9732 12.201 38.2337 12.1513 38.4538 12.0518C38.674 11.95 38.8445 11.8092 38.9652 11.6293C39.0859 11.447 39.1475 11.2339 39.1499 10.9901C39.1475 10.7367 39.0812 10.513 38.951 10.3189C38.8232 10.1248 38.6491 9.97206 38.429 9.8608C38.2088 9.74953 37.9567 9.69389 37.6726 9.69389C37.3861 9.69389 37.1316 9.74953 36.9091 9.8608C36.6866 9.97206 36.5114 10.1248 36.3835 10.3189C36.2557 10.513 36.1929 10.7367 36.1953 10.9901C36.1929 11.2339 36.2509 11.447 36.3693 11.6293C36.4901 11.8092 36.6617 11.95 36.8842 12.0518C37.1068 12.1513 37.3696 12.201 37.6726 12.201ZM37.6726 8.81676C37.9141 8.81676 38.1283 8.76823 38.3153 8.67116C38.5024 8.5741 38.6491 8.43916 38.7557 8.26634C38.8646 8.09351 38.9202 7.8911 38.9226 7.65909C38.9202 7.43182 38.8658 7.23295 38.7592 7.0625C38.6551 6.89205 38.5095 6.76065 38.3224 6.66832C38.1354 6.57363 37.9188 6.52628 37.6726 6.52628C37.4216 6.52628 37.2015 6.57363 37.0121 6.66832C36.825 6.76065 36.6795 6.89205 36.5753 7.0625C36.4711 7.23295 36.4202 7.43182 36.4226 7.65909C36.4202 7.8911 36.4723 8.09351 36.5788 8.26634C36.6854 8.43916 36.8321 8.5741 37.0192 8.67116C37.2086 8.76823 37.4264 8.81676 37.6726 8.81676ZM43.5655 13.1207C43.0044 13.1184 42.525 12.9704 42.1273 12.6768C41.7296 12.3833 41.4254 11.956 41.2147 11.3949C41.004 10.8338 40.8986 10.1579 40.8986 9.36719C40.8986 8.57884 41.004 7.9053 41.2147 7.34659C41.4277 6.78788 41.7331 6.36174 42.1309 6.06818C42.531 5.77462 43.0092 5.62784 43.5655 5.62784C44.1219 5.62784 44.5989 5.7758 44.9966 6.07173C45.3944 6.36529 45.6986 6.79143 45.9093 7.35014C46.1223 7.90649 46.2289 8.57884 46.2289 9.36719C46.2289 10.1603 46.1235 10.8374 45.9128 11.3984C45.7021 11.9571 45.3979 12.3845 45.0002 12.6804C44.6025 12.974 44.1242 13.1207 43.5655 13.1207ZM43.5655 12.1726C44.0579 12.1726 44.4426 11.9323 44.7196 11.4517C44.999 10.9711 45.1387 10.2763 45.1387 9.36719C45.1387 8.76349 45.0748 8.25331 44.9469 7.83665C44.8214 7.41761 44.6403 7.10038 44.4036 6.88494C44.1692 6.66714 43.8899 6.55824 43.5655 6.55824C43.0755 6.55824 42.6908 6.79972 42.4114 7.28267C42.132 7.76562 41.9912 8.46046 41.9888 9.36719C41.9888 9.97325 42.0516 10.4858 42.177 10.9048C42.3049 11.3215 42.486 11.6375 42.7203 11.853C42.9547 12.0661 43.2364 12.1726 43.5655 12.1726ZM49.5206 13.1207C48.9595 13.1184 48.4801 12.9704 48.0824 12.6768C47.6847 12.3833 47.3804 11.956 47.1697 11.3949C46.959 10.8338 46.8537 10.1579 46.8537 9.36719C46.8537 8.57884 46.959 7.9053 47.1697 7.34659C47.3828 6.78788 47.6882 6.36174 48.0859 6.06818C48.486 5.77462 48.9643 5.62784 49.5206 5.62784C50.0769 5.62784 50.554 5.7758 50.9517 6.07173C51.3494 6.36529 51.6536 6.79143 51.8643 7.35014C52.0774 7.90649 52.1839 8.57884 52.1839 9.36719C52.1839 10.1603 52.0786 10.8374 51.8679 11.3984C51.6572 11.9571 51.353 12.3845 50.9553 12.6804C50.5575 12.974 50.0793 13.1207 49.5206 13.1207ZM49.5206 12.1726C50.013 12.1726 50.3977 11.9323 50.6747 11.4517C50.9541 10.9711 51.0938 10.2763 51.0938 9.36719C51.0938 8.76349 51.0298 8.25331 50.902 7.83665C50.7765 7.41761 50.5954 7.10038 50.3587 6.88494C50.1243 6.66714 49.8449 6.55824 49.5206 6.55824C49.0305 6.55824 48.6458 6.79972 48.3665 7.28267C48.0871 7.76562 47.9463 8.46046 47.9439 9.36719C47.9439 9.97325 48.0066 10.4858 48.1321 10.9048C48.2599 11.3215 48.4411 11.6375 48.6754 11.853C48.9098 12.0661 49.1915 12.1726 49.5206 12.1726ZM56.1717 8.90199V9.82528H52.9473V8.90199H56.1717ZM57.0735 13L60.2482 6.72159V6.66832H56.5763V5.72727H61.3846V6.70028L58.2205 13H57.0735ZM64.5023 13.0994C64.178 13.0947 63.8584 13.0355 63.5435 12.9219C63.231 12.8082 62.9469 12.6188 62.6912 12.3537C62.4355 12.0885 62.2308 11.7322 62.0769 11.2848C61.9254 10.8374 61.8496 10.2786 61.8496 9.60866C61.8496 8.97419 61.9123 8.41075 62.0378 7.91832C62.1657 7.4259 62.3491 7.01042 62.5882 6.67188C62.8274 6.33097 63.1162 6.07173 63.4547 5.89418C63.7933 5.71662 64.1732 5.62784 64.5946 5.62784C65.0279 5.62784 65.4126 5.71307 65.7488 5.88352C66.0849 6.05398 66.3572 6.28954 66.5655 6.5902C66.7762 6.89086 66.91 7.23295 66.9668 7.61648H65.8837C65.8103 7.31345 65.6647 7.06605 65.4469 6.87429C65.2291 6.68253 64.945 6.58665 64.5946 6.58665C64.062 6.58665 63.6465 6.81866 63.3482 7.28267C63.0523 7.74669 62.9031 8.39181 62.9007 9.21804H62.954C63.0795 9.01207 63.2334 8.83688 63.4157 8.69247C63.6003 8.54569 63.8063 8.43324 64.0336 8.35511C64.2632 8.27462 64.5047 8.23438 64.758 8.23438C65.1794 8.23438 65.5605 8.33736 65.9015 8.54332C66.2447 8.74692 66.5182 9.02865 66.7218 9.38849C66.9254 9.74834 67.0272 10.1603 67.0272 10.6243C67.0272 11.0883 66.9218 11.5085 66.7111 11.8849C66.5028 12.2614 66.2092 12.5597 65.8304 12.7798C65.4516 12.9976 65.0089 13.1042 64.5023 13.0994ZM64.4988 12.1761C64.7781 12.1761 65.0279 12.1075 65.248 11.9702C65.4682 11.8329 65.6422 11.6482 65.7701 11.4162C65.8979 11.1842 65.9618 10.925 65.9618 10.6385C65.9618 10.3591 65.8991 10.1046 65.7736 9.875C65.6505 9.64536 65.4801 9.46307 65.2623 9.32812C65.0468 9.19318 64.8006 9.12571 64.5236 9.12571C64.3129 9.12571 64.1176 9.16596 63.9377 9.24645C63.7601 9.32694 63.6039 9.43821 63.4689 9.58026C63.334 9.7223 63.2275 9.88565 63.1493 10.0703C63.0736 10.2526 63.0357 10.4455 63.0357 10.6491C63.0357 10.9214 63.0984 11.1735 63.2239 11.4055C63.3517 11.6375 63.5257 11.8246 63.7459 11.9666C63.9685 12.1063 64.2194 12.1761 64.4988 12.1761ZM70.2212 13.0994C69.7762 13.0994 69.3761 13.0142 69.021 12.8438C68.6682 12.6709 68.3865 12.4342 68.1758 12.1335C67.9651 11.8329 67.8526 11.4896 67.8384 11.1037H68.9038C68.9298 11.4162 69.0683 11.6731 69.3192 11.8743C69.5702 12.0755 69.8709 12.1761 70.2212 12.1761C70.5006 12.1761 70.748 12.1122 70.9634 11.9844C71.1812 11.8542 71.3517 11.6754 71.4748 11.4482C71.6003 11.2209 71.663 10.9616 71.663 10.6705C71.663 10.3745 71.5991 10.1106 71.4712 9.87855C71.3434 9.64654 71.167 9.46425 70.9421 9.33168C70.7196 9.1991 70.4639 9.13163 70.1751 9.12926C69.9549 9.12926 69.7335 9.16714 69.511 9.2429C69.2885 9.31866 69.1085 9.41809 68.9712 9.54119L67.9663 9.39205L68.3746 5.72727H72.3732V6.66832H69.2873L69.0565 8.70312H69.0991C69.2411 8.56581 69.4293 8.45099 69.6637 8.35866C69.9004 8.26634 70.1538 8.22017 70.4237 8.22017C70.8664 8.22017 71.2605 8.32552 71.6062 8.53622C71.9542 8.74692 72.2276 9.03456 72.4265 9.39915C72.6277 9.76136 72.7272 10.178 72.7248 10.6491C72.7272 11.1203 72.6206 11.5405 72.4052 11.9098C72.1921 12.2791 71.8962 12.5703 71.5174 12.7834C71.141 12.9941 70.7089 13.0994 70.2212 13.0994ZM76.7498 8.90199V9.82528H73.5254V8.90199H76.7498ZM80.0691 5.62784C80.3934 5.63021 80.713 5.68939 81.0279 5.8054C81.3427 5.9214 81.6268 6.1108 81.8801 6.37358C82.1358 6.63636 82.3394 6.99148 82.4909 7.43892C82.6448 7.884 82.723 8.43797 82.7253 9.10085C82.7253 9.73769 82.6614 10.3047 82.5336 10.8018C82.4057 11.2966 82.2222 11.7145 81.9831 12.0554C81.7464 12.3963 81.4587 12.6555 81.1202 12.8331C80.7817 13.0107 80.4005 13.0994 79.9767 13.0994C79.5435 13.0994 79.1588 13.0142 78.8226 12.8438C78.4864 12.6733 78.213 12.4377 78.0023 12.1371C77.7916 11.834 77.6602 11.486 77.6081 11.093H78.6912C78.7623 11.4055 78.9067 11.6589 79.1245 11.853C79.3446 12.0447 79.6287 12.1406 79.9767 12.1406C80.5094 12.1406 80.9249 11.9086 81.2232 11.4446C81.5215 10.9782 81.6718 10.3272 81.6742 9.49148H81.6174C81.4943 9.69508 81.3404 9.87027 81.1557 10.017C80.9734 10.1638 80.7686 10.2775 80.5414 10.358C80.3141 10.4384 80.0714 10.4787 79.8134 10.4787C79.3944 10.4787 79.0132 10.3757 78.6699 10.1697C78.3266 9.96378 78.0532 9.68087 77.8496 9.32102C77.646 8.96117 77.5442 8.55043 77.5442 8.08878C77.5442 7.6295 77.6484 7.21283 77.8567 6.83878C78.0674 6.46473 78.361 6.1688 78.7374 5.95099C79.1162 5.73082 79.5601 5.62311 80.0691 5.62784ZM80.0726 6.55114C79.7956 6.55114 79.5459 6.61979 79.3233 6.7571C79.1032 6.89205 78.9292 7.07552 78.8013 7.30753C78.6735 7.53717 78.6096 7.79285 78.6096 8.07457C78.6096 8.3563 78.6711 8.61198 78.7942 8.84162C78.9197 9.06889 79.0901 9.25 79.3056 9.38494C79.5234 9.51752 79.772 9.58381 80.0513 9.58381C80.2596 9.58381 80.4538 9.54356 80.6337 9.46307C80.8136 9.38258 80.9711 9.27131 81.106 9.12926C81.2409 8.98485 81.3463 8.8215 81.4221 8.6392C81.4978 8.45691 81.5357 8.26515 81.5357 8.06392C81.5357 7.7964 81.4718 7.54782 81.3439 7.31818C81.2185 7.08854 81.0456 6.90388 80.8255 6.7642C80.6053 6.62216 80.3543 6.55114 80.0726 6.55114ZM86.0401 13.1207C85.479 13.1184 84.9996 12.9704 84.6019 12.6768C84.2042 12.3833 83.9 11.956 83.6893 11.3949C83.4786 10.8338 83.3732 10.1579 83.3732 9.36719C83.3732 8.57884 83.4786 7.9053 83.6893 7.34659C83.9023 6.78788 84.2077 6.36174 84.6055 6.06818C85.0056 5.77462 85.4838 5.62784 86.0401 5.62784C86.5965 5.62784 87.0735 5.7758 87.4712 6.07173C87.869 6.36529 88.1732 6.79143 88.3839 7.35014C88.5969 7.90649 88.7035 8.57884 88.7035 9.36719C88.7035 10.1603 88.5981 10.8374 88.3874 11.3984C88.1767 11.9571 87.8725 12.3845 87.4748 12.6804C87.0771 12.974 86.5988 13.1207 86.0401 13.1207ZM86.0401 12.1726C86.5326 12.1726 86.9173 11.9323 87.1942 11.4517C87.4736 10.9711 87.6133 10.2763 87.6133 9.36719C87.6133 8.76349 87.5494 8.25331 87.4215 7.83665C87.296 7.41761 87.1149 7.10038 86.8782 6.88494C86.6438 6.66714 86.3645 6.55824 86.0401 6.55824C85.5501 6.55824 85.1654 6.79972 84.886 7.28267C84.6067 7.76562 84.4658 8.46046 84.4634 9.36719C84.4634 9.97325 84.5262 10.4858 84.6516 10.9048C84.7795 11.3215 84.9606 11.6375 85.195 11.853C85.4293 12.0661 85.7111 12.1726 86.0401 12.1726ZM89.513 13L92.6877 6.72159V6.66832H89.0158V5.72727H93.824V6.70028L90.66 13H89.513ZM96.8699 13.0994C96.3609 13.0994 95.911 13.0118 95.5204 12.8366C95.1322 12.6615 94.8279 12.42 94.6078 12.1122C94.3876 11.8045 94.2787 11.4541 94.2811 11.0611C94.2787 10.7533 94.3414 10.4704 94.4693 10.2124C94.5995 9.95194 94.7759 9.73532 94.9984 9.5625C95.2209 9.38731 95.4695 9.27604 95.7441 9.22869V9.18608C95.3819 9.09848 95.0919 8.90436 94.8741 8.60369C94.6563 8.30303 94.5486 7.95739 94.551 7.56676C94.5486 7.19508 94.6468 6.86364 94.8457 6.57244C95.0469 6.27888 95.3227 6.04806 95.6731 5.87997C96.0235 5.71188 96.4224 5.62784 96.8699 5.62784C97.3126 5.62784 97.7079 5.71307 98.0559 5.88352C98.4063 6.05161 98.6821 6.28243 98.8833 6.57599C99.0846 6.86719 99.1864 7.19744 99.1887 7.56676C99.1864 7.95739 99.0751 8.30303 98.8549 8.60369C98.6348 8.90436 98.3483 9.09848 97.9956 9.18608V9.22869C98.2678 9.27604 98.5128 9.38731 98.7306 9.5625C98.9508 9.73532 99.126 9.95194 99.2562 10.2124C99.3888 10.4704 99.4563 10.7533 99.4586 11.0611C99.4563 11.4541 99.345 11.8045 99.1248 12.1122C98.9047 12.42 98.5993 12.6615 98.2086 12.8366C97.8204 13.0118 97.3741 13.0994 96.8699 13.0994ZM96.8699 12.201C97.1705 12.201 97.4309 12.1513 97.6511 12.0518C97.8713 11.95 98.0417 11.8092 98.1625 11.6293C98.2832 11.447 98.3448 11.2339 98.3471 10.9901C98.3448 10.7367 98.2785 10.513 98.1483 10.3189C98.0204 10.1248 97.8464 9.97206 97.6262 9.8608C97.4061 9.74953 97.1539 9.69389 96.8699 9.69389C96.5834 9.69389 96.3289 9.74953 96.1064 9.8608C95.8838 9.97206 95.7086 10.1248 95.5808 10.3189C95.4529 10.513 95.3902 10.7367 95.3926 10.9901C95.3902 11.2339 95.4482 11.447 95.5666 11.6293C95.6873 11.8092 95.859 11.95 96.0815 12.0518C96.304 12.1513 96.5668 12.201 96.8699 12.201ZM96.8699 8.81676C97.1113 8.81676 97.3256 8.76823 97.5126 8.67116C97.6996 8.5741 97.8464 8.43916 97.9529 8.26634C98.0618 8.09351 98.1175 7.8911 98.1199 7.65909C98.1175 7.43182 98.063 7.23295 97.9565 7.0625C97.8523 6.89205 97.7067 6.76065 97.5197 6.66832C97.3327 6.57363 97.1161 6.52628 96.8699 6.52628C96.6189 6.52628 96.3987 6.57363 96.2093 6.66832C96.0223 6.76065 95.8767 6.89205 95.7725 7.0625C95.6684 7.23295 95.6175 7.43182 95.6199 7.65909C95.6175 7.8911 95.6696 8.09351 95.7761 8.26634C95.8826 8.43916 96.0294 8.5741 96.2164 8.67116C96.4058 8.76823 96.6236 8.81676 96.8699 8.81676Z" fill="#212121"/>
</svg>
