<svg width="24" height="24" viewBox="0 0 24 24" fill="none" xmlns="http://www.w3.org/2000/svg">
<path d="M5.35149 6.728H19.5155C20.383 6.728 21.25 7.595 21.25 8.462V18.58C21.25 19.447 20.383 20.3145 19.5155 20.3145H4.48499C3.61749 20.3145 2.75049 19.447 2.75049 18.5795V6.728C2.75049 5.283 3.03949 4.8495 4.19549 4.8495L16.6255 3.693C17.637 3.6355 17.782 3.982 17.782 4.416V6.7285" stroke="#111111" stroke-linecap="round" stroke-linejoin="round"/>
<path d="M9.41503 17.0175C10.0825 17.5175 10.7495 17.6845 12.0835 17.6845H12.7505C13.3255 17.6845 13.877 17.4561 14.2835 17.0495C14.6901 16.6429 14.9185 16.0915 14.9185 15.5165C14.9185 14.9415 14.6901 14.3901 14.2835 13.9835C13.877 13.5769 13.3255 13.3485 12.7505 13.3485H11.25C10.675 13.3485 10.1236 13.1201 9.71702 12.7135C9.31044 12.3069 9.08203 11.7555 9.08203 11.1805C9.08203 10.6055 9.31044 10.0541 9.71702 9.64749C10.1236 9.24091 10.675 9.0125 11.25 9.0125H11.9175C13.418 9.0125 14.085 9.1795 14.5855 9.6795" stroke="#111111" stroke-linecap="round" stroke-linejoin="round"/>
</svg>
